<svg
  xmlns="http://www.w3.org/2000/svg"
  width="109"
  height="30"
  fill="none"
><path
    fill="#828282"
    d="M7.11 23.72h8.96V29H.27V.92h6.84v22.8Zm25.502 5.56c-2.64 0-5.067-.613-7.28-1.84-2.187-1.227-3.934-2.933-5.24-5.12-1.28-2.213-1.92-4.693-1.92-7.44 0-2.747.64-5.213 1.92-7.4 1.306-2.187 3.053-3.893 5.24-5.12 2.213-1.227 4.64-1.84 7.28-1.84 2.64 0 5.053.613 7.24 1.84a13.33 13.33 0 0 1 5.2 5.12c1.28 2.187 1.92 4.653 1.92 7.4 0 2.747-.64 5.227-1.92 7.44-1.28 2.187-3.014 3.893-5.2 5.12-2.187 1.227-4.6 1.84-7.24 1.84Zm0-6.24c2.24 0 4.026-.747 5.36-2.24 1.36-1.493 2.04-3.467 2.04-5.92 0-2.48-.68-4.453-2.04-5.92-1.334-1.493-3.12-2.24-5.36-2.24-2.267 0-4.08.733-5.44 2.2-1.334 1.467-2 3.453-2 5.96 0 2.48.666 4.467 2 5.96 1.36 1.467 3.173 2.2 5.44 2.2ZM69.417 9.8a4.974 4.974 0 0 0-2.2-2.12c-.933-.507-2.04-.76-3.32-.76-2.213 0-3.987.733-5.32 2.2-1.334 1.44-2 3.373-2 5.8 0 2.587.693 4.613 2.08 6.08 1.413 1.44 3.347 2.16 5.8 2.16 1.68 0 3.093-.427 4.24-1.28 1.173-.853 2.026-2.08 2.56-3.68h-8.68v-5.04h14.88v6.36c-.507 1.707-1.373 3.293-2.6 4.76-1.2 1.467-2.733 2.653-4.6 3.56-1.867.907-3.974 1.36-6.32 1.36-2.773 0-5.253-.6-7.44-1.8a13.281 13.281 0 0 1-5.08-5.08c-1.2-2.16-1.8-4.627-1.8-7.4 0-2.773.6-5.24 1.8-7.4 1.227-2.187 2.92-3.88 5.08-5.08 2.16-1.227 4.627-1.84 7.4-1.84 3.36 0 6.187.813 8.48 2.44 2.32 1.627 3.853 3.88 4.6 6.76h-7.56Zm25.109 19.48c-2.64 0-5.067-.613-7.28-1.84-2.187-1.227-3.934-2.933-5.24-5.12-1.28-2.213-1.92-4.693-1.92-7.44 0-2.747.64-5.213 1.92-7.4 1.306-2.187 3.053-3.893 5.24-5.12 2.213-1.227 4.64-1.84 7.28-1.84 2.64 0 5.053.613 7.24 1.84a13.337 13.337 0 0 1 5.2 5.12c1.28 2.187 1.92 4.653 1.92 7.4 0 2.747-.64 5.227-1.92 7.44-1.28 2.187-3.014 3.893-5.2 5.12-2.187 1.227-4.6 1.84-7.24 1.84Zm0-6.24c2.24 0 4.026-.747 5.36-2.24 1.36-1.493 2.04-3.467 2.04-5.92 0-2.48-.68-4.453-2.04-5.92-1.334-1.493-3.12-2.24-5.36-2.24-2.267 0-4.08.733-5.44 2.2-1.334 1.467-2 3.453-2 5.96 0 2.48.666 4.467 2 5.96 1.36 1.467 3.173 2.2 5.44 2.2Z"
  /></svg>
